<?xml version="1.0" standalone="no"?>
<!DOCTYPE svg PUBLIC "-//W3C//DTD SVG 20010904//EN"
 "http://www.w3.org/TR/2001/REC-SVG-20010904/DTD/svg10.dtd">
<svg version="1.0" xmlns="http://www.w3.org/2000/svg"
 width="700.000000pt" height="700.000000pt" viewBox="0 0 700.000000 700.000000"
 preserveAspectRatio="xMidYMid meet">
<metadata>
Created by potrace 1.14, written by Peter Selinger 2001-2017
</metadata>
<g transform="translate(0.000000,700.000000) scale(0.100000,-0.100000)"
fill="#000000" stroke="none">
<path d="M4688 6205 c-2 -2 -23 -6 -48 -9 -213 -25 -424 -104 -607 -227 -97
-65 -116 -82 -269 -234 -164 -162 -197 -226 -188 -365 9 -141 92 -253 234
-315 33 -15 66 -20 131 -20 126 1 178 30 341 188 194 190 302 243 508 252 112
5 214 -16 320 -68 114 -55 237 -176 293 -287 109 -218 98 -465 -29 -664 -35
-54 -196 -221 -668 -694 -643 -645 -698 -695 -823 -742 -109 -41 -263 -56
-353 -34 -14 3 -35 8 -48 10 -87 17 -217 91 -307 177 -27 25 -74 58 -104 73
-49 25 -67 28 -146 28 -104 0 -118 -3 -185 -40 -164 -89 -232 -297 -153 -466
88 -189 446 -421 748 -487 192 -41 418 -45 575 -10 25 6 56 13 70 15 49 10
176 56 256 93 92 43 170 92 266 165 86 64 1359 1340 1419 1421 198 266 291
553 284 875 -3 145 -8 180 -41 314 -115 464 -463 835 -925 986 -75 25 -124 36
-239 56 -29 5 -308 13 -312 9z"/>
<path d="M3297 4754 c-1 -1 -35 -4 -74 -8 -258 -22 -516 -125 -733 -295 -62
-48 -1324 -1308 -1381 -1379 -162 -200 -272 -451 -306 -698 -9 -67 -9 -296 0
-369 41 -323 208 -635 459 -860 71 -64 89 -77 173 -131 147 -94 327 -167 480
-194 39 -6 86 -15 106 -19 62 -14 318 -5 414 13 240 46 447 142 636 294 106
85 292 280 317 333 48 99 50 215 4 313 -67 144 -210 226 -366 212 -99 -9 -164
-49 -303 -185 -162 -159 -232 -203 -382 -240 -101 -25 -250 -21 -346 9 -375
118 -571 529 -423 889 17 42 50 102 72 133 23 31 329 344 681 695 636 635 641
639 725 681 113 55 194 75 305 75 105 -1 192 -21 290 -68 66 -32 100 -56 184
-133 20 -18 63 -47 96 -65 55 -29 68 -31 155 -32 88 0 101 3 162 33 201 99
267 357 137 537 -68 95 -260 241 -414 315 -99 48 -252 102 -330 117 -22 4 -42
8 -45 8 -35 8 -286 25 -293 19z"/>
</g>
</svg>
